<svg width="166" height="32" viewBox="0 0 166 32" fill="none" xmlns="http://www.w3.org/2000/svg">
<g clip-path="url(#clip0_16_9501)">
<path d="M8.38487 25.6637C9.90584 25.6637 11.1389 24.4308 11.1389 22.9098C11.1389 21.3888 9.90584 20.1558 8.38487 20.1558C6.8639 20.1558 5.63092 21.3888 5.63092 22.9098C5.63092 24.4308 6.8639 25.6637 8.38487 25.6637Z" stroke="#0AAD0A" stroke-width="1.32414" stroke-miterlimit="10" stroke-linecap="round"/>
<path d="M7.2005 9.48584H23.8596" stroke="#0AAD0A" stroke-width="1.32414" stroke-miterlimit="10" stroke-linecap="round"/>
<path d="M8.65894 12.8179H23.1315" stroke="#0AAD0A" stroke-width="1.32414" stroke-miterlimit="10" stroke-linecap="round"/>
<path d="M7.90765 20.1548H18.6975C19.8792 20.1548 20.9319 19.404 21.316 18.2858L25.763 5.34795C26.1472 4.22971 27.1989 3.479 28.3816 3.479H31.6166" stroke="#0AAD0A" stroke-width="1.32414" stroke-miterlimit="10" stroke-linecap="round"/>
<path d="M8.38504 23.3076C8.60471 23.3076 8.78278 23.1295 8.78278 22.9099C8.78278 22.6902 8.60471 22.5122 8.38504 22.5122C8.16538 22.5122 7.9873 22.6902 7.9873 22.9099C7.9873 23.1295 8.16538 23.3076 8.38504 23.3076Z" stroke="#0AAD0A" stroke-width="1.10345" stroke-miterlimit="10" stroke-linecap="round"/>
<path d="M18.3965 25.6637C19.9174 25.6637 21.1503 24.4308 21.1503 22.9098C21.1503 21.3888 19.9174 20.1558 18.3965 20.1558C16.8754 20.1558 15.6425 21.3888 15.6425 22.9098C15.6425 24.4308 16.8754 25.6637 18.3965 25.6637Z" stroke="#0AAD0A" stroke-width="1.32414" stroke-miterlimit="10" stroke-linecap="round"/>
<path d="M18.3966 23.3077C18.6162 23.3077 18.7944 23.1296 18.7944 22.9099C18.7944 22.6903 18.6162 22.5122 18.3966 22.5122C18.177 22.5122 17.9989 22.6903 17.9989 22.9099C17.9989 23.1296 18.177 23.3077 18.3966 23.3077Z" stroke="#0AAD0A" stroke-width="1.10345" stroke-miterlimit="10" stroke-linecap="round"/>
<path d="M21.8703 16.6731H7.37788C6.89269 16.6731 6.46685 16.3367 6.33357 15.8472L3.87532 6.84273C3.75245 6.39372 4.07418 5.9458 4.51981 5.9458H23.0988" stroke="#0AAD0A" stroke-width="1.32414" stroke-miterlimit="10" stroke-linecap="round"/>
<path d="M1.03168 27.3828C1.03168 27.3828 11.6226 23.799 25.9151 27.3828" stroke="#0AAD0A" stroke-width="1.32414" stroke-miterlimit="10" stroke-linecap="round"/>
<path d="M37.7046 25.8066V6.54639H50.4569V9.90375H41.7766V14.4931H49.6105V17.8505H41.7766V25.8066H37.7046Z" fill="#21313C"/>
<path d="M52.0934 25.8064V11.3612H55.9774V13.8815H56.1279C56.3913 12.985 56.8333 12.3078 57.454 11.8502C58.0747 11.3862 58.7894 11.1543 59.5982 11.1543C59.7987 11.1543 60.0151 11.1668 60.247 11.1919C60.479 11.217 60.6828 11.2514 60.8583 11.2953V14.8502C60.6703 14.7938 60.41 14.7437 60.0778 14.6997C59.7455 14.6558 59.4414 14.6339 59.1655 14.6339C58.5762 14.6339 58.0496 14.7625 57.5856 15.0195C57.128 15.2703 56.7643 15.6214 56.4947 16.0728C56.2314 16.5242 56.0997 17.0446 56.0997 17.6339V25.8064H52.0934Z" fill="#21313C"/>
<path d="M68.0458 26.0887C66.5599 26.0887 65.2809 25.7877 64.2088 25.1859C63.143 24.5777 62.3217 23.7188 61.7448 22.6091C61.1681 21.4931 60.8797 20.1734 60.8797 18.6499C60.8797 17.1639 61.1681 15.8599 61.7448 14.7376C62.3217 13.6154 63.1336 12.7407 64.1807 12.1138C65.2339 11.4868 66.469 11.1733 67.8859 11.1733C68.8389 11.1733 69.726 11.3269 70.5474 11.6341C71.375 11.9351 72.096 12.3896 72.7104 12.9978C73.3311 13.606 73.8139 14.3709 74.1587 15.2925C74.5035 16.2079 74.6759 17.28 74.6759 18.5088V19.6091H62.4785V17.1264H70.9048C70.9048 16.5495 70.7794 16.0386 70.5285 15.5934C70.2778 15.1483 69.9298 14.8003 69.4847 14.5495C69.0458 14.2925 68.5348 14.1639 67.9518 14.1639C67.3436 14.1639 66.8045 14.305 66.3343 14.5871C65.8703 14.863 65.5066 15.236 65.2433 15.7063C64.98 16.1702 64.8452 16.6875 64.8389 17.258V19.6184C64.8389 20.3332 64.9705 20.9508 65.2339 21.4711C65.5035 21.9915 65.8829 22.3927 66.3718 22.675C66.8609 22.9571 67.4408 23.0981 68.1116 23.0981C68.5568 23.0981 68.9643 23.0354 69.3342 22.91C69.7042 22.7846 70.0208 22.5965 70.2841 22.3458C70.5474 22.0949 70.748 21.7877 70.8859 21.4242L74.5913 21.6686C74.4032 22.5589 74.0176 23.3363 73.4345 24.0009C72.8577 24.6593 72.1117 25.1733 71.1963 25.5433C70.2872 25.9069 69.2371 26.0887 68.0458 26.0887Z" fill="#21313C"/>
<path d="M88.5147 15.4805L84.847 15.7063C84.7842 15.3928 84.6495 15.1107 84.4425 14.8598C84.2357 14.6028 83.963 14.399 83.6244 14.2485C83.2921 14.0918 82.894 14.0135 82.4301 14.0135C81.8094 14.0135 81.2858 14.1451 80.8595 14.4084C80.4332 14.6655 80.22 15.0103 80.22 15.443C80.22 15.7877 80.3579 16.0794 80.6338 16.3176C80.9096 16.5558 81.383 16.747 82.0539 16.8912L84.6683 17.4179C86.0727 17.7063 87.1197 18.1702 87.8094 18.8097C88.499 19.4493 88.8438 20.2893 88.8438 21.3301C88.8438 22.2768 88.5649 23.1075 88.0068 23.8222C87.4551 24.537 86.6965 25.095 85.731 25.4962C84.7717 25.8912 83.6652 26.0887 82.4113 26.0887C80.499 26.0887 78.9755 25.6906 77.8406 24.8943C76.7122 24.0918 76.0507 23.001 75.8563 21.6216L79.7968 21.4147C79.9159 21.9978 80.2043 22.4429 80.662 22.7501C81.1197 23.0511 81.7059 23.2015 82.4207 23.2015C83.1228 23.2015 83.687 23.0668 84.1135 22.7972C84.546 22.5213 84.7654 22.1671 84.7717 21.7345C84.7654 21.3708 84.6118 21.073 84.3109 20.8411C84.0099 20.6028 83.546 20.421 82.919 20.2956L80.4175 19.7971C79.0069 19.515 77.9567 19.026 77.267 18.3301C76.5837 17.6341 76.242 16.747 76.242 15.6686C76.242 14.7407 76.4927 13.9413 76.9943 13.2706C77.5022 12.5997 78.2137 12.0824 79.1291 11.7188C80.0507 11.3551 81.1291 11.1733 82.3642 11.1733C84.1886 11.1733 85.6244 11.5589 86.6714 12.3301C87.7247 13.1013 88.3391 14.1514 88.5147 15.4805Z" fill="#21313C"/>
<path d="M94.5783 17.4555V25.8066H90.5721V6.54639H94.4654V13.9101H94.6347C94.9607 13.0573 95.4874 12.3896 96.2147 11.9069C96.9419 11.4179 97.8541 11.1733 98.9513 11.1733C99.9545 11.1733 100.829 11.3928 101.575 11.8316C102.328 12.2642 102.911 12.8881 103.324 13.7031C103.744 14.5119 103.951 15.4805 103.945 16.6091V25.8066H99.9388V17.3238C99.9451 16.4335 99.7194 15.7408 99.2617 15.2455C98.8103 14.7501 98.177 14.5025 97.3621 14.5025C96.8165 14.5025 96.3338 14.6185 95.9137 14.8504C95.5 15.0824 95.1739 15.421 94.9356 15.8661C94.7037 16.305 94.5846 16.8348 94.5783 17.4555Z" fill="#21313C"/>
<path d="M123.373 13.289H119.253C119.178 12.7561 119.025 12.2827 118.793 11.8689C118.56 11.4489 118.263 11.0915 117.899 10.7968C117.535 10.5021 117.115 10.2764 116.638 10.1197C116.169 9.96296 115.658 9.88459 115.105 9.88459C114.109 9.88459 113.241 10.1322 112.501 10.6275C111.761 11.1165 111.187 11.8313 110.78 12.7717C110.373 13.7059 110.168 14.8407 110.168 16.1761C110.168 17.5491 110.373 18.7028 110.78 19.637C111.194 20.5711 111.77 21.2764 112.51 21.7529C113.25 22.2294 114.106 22.4676 115.078 22.4676C115.624 22.4676 116.127 22.3956 116.592 22.2514C117.062 22.1072 117.479 21.8971 117.843 21.6213C118.206 21.3392 118.507 20.9974 118.745 20.5962C118.99 20.1949 119.159 19.7372 119.253 19.2232L123.373 19.2419C123.265 20.126 122.999 20.9786 122.573 21.8C122.153 22.6151 121.586 23.3454 120.871 23.9912C120.162 24.6306 119.316 25.1385 118.331 25.5147C117.354 25.8846 116.247 26.0695 115.012 26.0695C113.294 26.0695 111.758 25.6809 110.404 24.9034C109.055 24.126 107.99 23.0006 107.207 21.5273C106.429 20.0539 106.04 18.2702 106.04 16.1761C106.04 14.0758 106.436 12.289 107.225 10.8156C108.015 9.34228 109.087 8.22002 110.442 7.44886C111.796 6.67143 113.319 6.28271 115.012 6.28271C116.127 6.28271 117.163 6.43945 118.116 6.75293C119.074 7.06642 119.924 7.52409 120.664 8.12598C121.403 8.72158 122.006 9.452 122.47 10.3172C122.94 11.1824 123.241 12.173 123.373 13.289Z" fill="#21313C"/>
<path d="M129.542 26.0794C128.62 26.0794 127.799 25.9195 127.078 25.5997C126.357 25.2737 125.786 24.7941 125.366 24.1608C124.952 23.5213 124.746 22.725 124.746 21.772C124.746 20.9696 124.893 20.2956 125.188 19.7502C125.483 19.2047 125.883 18.7658 126.391 18.4335C126.899 18.1012 127.476 17.8505 128.122 17.6812C128.774 17.5119 129.457 17.3928 130.172 17.3238C131.013 17.236 131.69 17.1546 132.204 17.0793C132.718 16.9978 133.09 16.8786 133.323 16.7219C133.554 16.5652 133.671 16.3332 133.671 16.026V15.9696C133.671 15.374 133.483 14.9132 133.106 14.5871C132.736 14.2611 132.21 14.0981 131.527 14.0981C130.805 14.0981 130.231 14.258 129.805 14.5777C129.379 14.8912 129.097 15.2862 128.958 15.7627L125.254 15.4618C125.441 14.584 125.811 13.8254 126.363 13.1859C126.915 12.5402 127.627 12.0448 128.498 11.7C129.375 11.3489 130.391 11.1733 131.545 11.1733C132.347 11.1733 133.115 11.2674 133.849 11.4555C134.589 11.6435 135.244 11.9351 135.815 12.3301C136.392 12.725 136.846 13.2329 137.178 13.8536C137.511 14.468 137.677 15.2047 137.677 16.0637V25.8066H133.877V23.8034H133.765C133.532 24.2548 133.223 24.653 132.833 24.9978C132.444 25.3363 131.978 25.6029 131.432 25.7971C130.887 25.9853 130.257 26.0794 129.542 26.0794ZM130.689 23.3144C131.279 23.3144 131.799 23.1984 132.25 22.9665C132.701 22.7282 133.056 22.4084 133.313 22.0072C133.57 21.606 133.698 21.1515 133.698 20.6436V19.1107C133.574 19.1921 133.401 19.2674 133.181 19.3363C132.969 19.3991 132.727 19.4587 132.458 19.515C132.187 19.5652 131.918 19.6123 131.648 19.6561C131.379 19.6937 131.134 19.7282 130.914 19.7596C130.445 19.8285 130.034 19.9382 129.683 20.0887C129.332 20.2391 129.06 20.4429 128.864 20.6999C128.67 20.9508 128.573 21.2643 128.573 21.6404C128.573 22.1859 128.77 22.6028 129.166 22.8912C129.567 23.1733 130.075 23.3144 130.689 23.3144Z" fill="#21313C"/>
<path d="M139.99 25.8064V11.3612H143.874V13.8815H144.025C144.288 12.985 144.73 12.3078 145.351 11.8502C145.972 11.3862 146.686 11.1543 147.495 11.1543C147.696 11.1543 147.912 11.1668 148.144 11.1919C148.376 11.217 148.58 11.2514 148.755 11.2953V14.8502C148.567 14.7938 148.307 14.7437 147.975 14.6997C147.642 14.6558 147.339 14.6339 147.062 14.6339C146.473 14.6339 145.946 14.7625 145.483 15.0195C145.024 15.2703 144.661 15.6214 144.392 16.0728C144.128 16.5242 143.996 17.0446 143.996 17.6339V25.8064H139.99Z" fill="#21313C"/>
<path d="M158.44 11.3612V14.3706H149.741V11.3612H158.44ZM151.716 7.90039H155.722V21.3675C155.722 21.7373 155.779 22.0258 155.891 22.2327C156.004 22.4333 156.16 22.5744 156.362 22.6558C156.568 22.7374 156.807 22.7782 157.076 22.7782C157.264 22.7782 157.452 22.7625 157.641 22.7311C157.829 22.6935 157.972 22.6652 158.073 22.6465L158.703 25.6277C158.503 25.6904 158.22 25.7624 157.856 25.844C157.493 25.9317 157.051 25.985 156.531 26.0039C155.565 26.0414 154.718 25.9129 153.992 25.6182C153.27 25.3236 152.71 24.8659 152.308 24.2452C151.907 23.6245 151.709 22.8408 151.716 21.8941V7.90039Z" fill="#21313C"/>
</g>
<defs>
<clipPath id="clip0_16_9501">
<rect width="165.16" height="32" fill="white"/>
</clipPath>
</defs>
</svg>
